<?xml version="1.0" encoding="UTF-8"?>
<!DOCTYPE svg PUBLIC "-//W3C//DTD SVG 1.1//EN" "http://www.w3.org/Graphics/SVG/1.1/DTD/svg11.dtd">
<svg xmlns="http://www.w3.org/2000/svg" version="1.1" viewBox="0 0 33 33" stroke="none">
	<rect width="100%" height="100%" fill="#FFFFFF"/>
	<path d="M0,0h1v1h-1z M1,0h1v1h-1z M2,0h1v1h-1z M3,0h1v1h-1z M4,0h1v1h-1z M5,0h1v1h-1z M6,0h1v1h-1z M8,0h1v1h-1z M9,0h1v1h-1z M11,0h1v1h-1z M12,0h1v1h-1z M19,0h1v1h-1z M20,0h1v1h-1z M21,0h1v1h-1z M23,0h1v1h-1z M26,0h1v1h-1z M27,0h1v1h-1z M28,0h1v1h-1z M29,0h1v1h-1z M30,0h1v1h-1z M31,0h1v1h-1z M32,0h1v1h-1z M0,1h1v1h-1z M6,1h1v1h-1z M8,1h1v1h-1z M9,1h1v1h-1z M11,1h1v1h-1z M12,1h1v1h-1z M14,1h1v1h-1z M17,1h1v1h-1z M20,1h1v1h-1z M21,1h1v1h-1z M23,1h1v1h-1z M26,1h1v1h-1z M32,1h1v1h-1z M0,2h1v1h-1z M2,2h1v1h-1z M3,2h1v1h-1z M4,2h1v1h-1z M6,2h1v1h-1z M9,2h1v1h-1z M11,2h1v1h-1z M13,2h1v1h-1z M14,2h1v1h-1z M15,2h1v1h-1z M16,2h1v1h-1z M18,2h1v1h-1z M19,2h1v1h-1z M20,2h1v1h-1z M24,2h1v1h-1z M26,2h1v1h-1z M28,2h1v1h-1z M29,2h1v1h-1z M30,2h1v1h-1z M32,2h1v1h-1z M0,3h1v1h-1z M2,3h1v1h-1z M3,3h1v1h-1z M4,3h1v1h-1z M6,3h1v1h-1z M8,3h1v1h-1z M9,3h1v1h-1z M10,3h1v1h-1z M11,3h1v1h-1z M15,3h1v1h-1z M18,3h1v1h-1z M22,3h1v1h-1z M23,3h1v1h-1z M24,3h1v1h-1z M26,3h1v1h-1z M28,3h1v1h-1z M29,3h1v1h-1z M30,3h1v1h-1z M32,3h1v1h-1z M0,4h1v1h-1z M2,4h1v1h-1z M3,4h1v1h-1z M4,4h1v1h-1z M6,4h1v1h-1z M9,4h1v1h-1z M10,4h1v1h-1z M13,4h1v1h-1z M16,4h1v1h-1z M18,4h1v1h-1z M21,4h1v1h-1z M24,4h1v1h-1z M26,4h1v1h-1z M28,4h1v1h-1z M29,4h1v1h-1z M30,4h1v1h-1z M32,4h1v1h-1z M0,5h1v1h-1z M6,5h1v1h-1z M11,5h1v1h-1z M14,5h1v1h-1z M15,5h1v1h-1z M16,5h1v1h-1z M17,5h1v1h-1z M21,5h1v1h-1z M24,5h1v1h-1z M26,5h1v1h-1z M32,5h1v1h-1z M0,6h1v1h-1z M1,6h1v1h-1z M2,6h1v1h-1z M3,6h1v1h-1z M4,6h1v1h-1z M5,6h1v1h-1z M6,6h1v1h-1z M8,6h1v1h-1z M10,6h1v1h-1z M12,6h1v1h-1z M14,6h1v1h-1z M16,6h1v1h-1z M18,6h1v1h-1z M20,6h1v1h-1z M22,6h1v1h-1z M24,6h1v1h-1z M26,6h1v1h-1z M27,6h1v1h-1z M28,6h1v1h-1z M29,6h1v1h-1z M30,6h1v1h-1z M31,6h1v1h-1z M32,6h1v1h-1z M8,7h1v1h-1z M9,7h1v1h-1z M11,7h1v1h-1z M12,7h1v1h-1z M14,7h1v1h-1z M15,7h1v1h-1z M16,7h1v1h-1z M17,7h1v1h-1z M19,7h1v1h-1z M22,7h1v1h-1z M23,7h1v1h-1z M24,7h1v1h-1z M0,8h1v1h-1z M2,8h1v1h-1z M3,8h1v1h-1z M5,8h1v1h-1z M6,8h1v1h-1z M7,8h1v1h-1z M10,8h1v1h-1z M12,8h1v1h-1z M14,8h1v1h-1z M15,8h1v1h-1z M16,8h1v1h-1z M17,8h1v1h-1z M20,8h1v1h-1z M21,8h1v1h-1z M23,8h1v1h-1z M26,8h1v1h-1z M29,8h1v1h-1z M31,8h1v1h-1z M32,8h1v1h-1z M0,9h1v1h-1z M4,9h1v1h-1z M7,9h1v1h-1z M12,9h1v1h-1z M13,9h1v1h-1z M16,9h1v1h-1z M17,9h1v1h-1z M18,9h1v1h-1z M19,9h1v1h-1z M20,9h1v1h-1z M23,9h1v1h-1z M26,9h1v1h-1z M27,9h1v1h-1z M29,9h1v1h-1z M30,9h1v1h-1z M31,9h1v1h-1z M32,9h1v1h-1z M0,10h1v1h-1z M2,10h1v1h-1z M3,10h1v1h-1z M6,10h1v1h-1z M7,10h1v1h-1z M8,10h1v1h-1z M11,10h1v1h-1z M13,10h1v1h-1z M16,10h1v1h-1z M18,10h1v1h-1z M22,10h1v1h-1z M23,10h1v1h-1z M24,10h1v1h-1z M25,10h1v1h-1z M26,10h1v1h-1z M27,10h1v1h-1z M28,10h1v1h-1z M29,10h1v1h-1z M31,10h1v1h-1z M32,10h1v1h-1z M0,11h1v1h-1z M3,11h1v1h-1z M7,11h1v1h-1z M8,11h1v1h-1z M9,11h1v1h-1z M12,11h1v1h-1z M17,11h1v1h-1z M19,11h1v1h-1z M22,11h1v1h-1z M23,11h1v1h-1z M24,11h1v1h-1z M27,11h1v1h-1z M29,11h1v1h-1z M32,11h1v1h-1z M2,12h1v1h-1z M6,12h1v1h-1z M8,12h1v1h-1z M12,12h1v1h-1z M14,12h1v1h-1z M15,12h1v1h-1z M16,12h1v1h-1z M19,12h1v1h-1z M20,12h1v1h-1z M22,12h1v1h-1z M23,12h1v1h-1z M24,12h1v1h-1z M25,12h1v1h-1z M27,12h1v1h-1z M28,12h1v1h-1z M29,12h1v1h-1z M31,12h1v1h-1z M32,12h1v1h-1z M0,13h1v1h-1z M1,13h1v1h-1z M2,13h1v1h-1z M3,13h1v1h-1z M4,13h1v1h-1z M7,13h1v1h-1z M8,13h1v1h-1z M10,13h1v1h-1z M12,13h1v1h-1z M14,13h1v1h-1z M20,13h1v1h-1z M25,13h1v1h-1z M27,13h1v1h-1z M29,13h1v1h-1z M31,13h1v1h-1z M0,14h1v1h-1z M1,14h1v1h-1z M2,14h1v1h-1z M6,14h1v1h-1z M8,14h1v1h-1z M10,14h1v1h-1z M14,14h1v1h-1z M17,14h1v1h-1z M18,14h1v1h-1z M19,14h1v1h-1z M20,14h1v1h-1z M21,14h1v1h-1z M22,14h1v1h-1z M24,14h1v1h-1z M26,14h1v1h-1z M30,14h1v1h-1z M1,15h1v1h-1z M2,15h1v1h-1z M8,15h1v1h-1z M10,15h1v1h-1z M15,15h1v1h-1z M18,15h1v1h-1z M21,15h1v1h-1z M22,15h1v1h-1z M25,15h1v1h-1z M26,15h1v1h-1z M27,15h1v1h-1z M29,15h1v1h-1z M30,15h1v1h-1z M0,16h1v1h-1z M1,16h1v1h-1z M2,16h1v1h-1z M4,16h1v1h-1z M6,16h1v1h-1z M7,16h1v1h-1z M8,16h1v1h-1z M10,16h1v1h-1z M11,16h1v1h-1z M12,16h1v1h-1z M14,16h1v1h-1z M16,16h1v1h-1z M18,16h1v1h-1z M20,16h1v1h-1z M21,16h1v1h-1z M22,16h1v1h-1z M23,16h1v1h-1z M25,16h1v1h-1z M26,16h1v1h-1z M28,16h1v1h-1z M29,16h1v1h-1z M30,16h1v1h-1z M0,17h1v1h-1z M1,17h1v1h-1z M2,17h1v1h-1z M3,17h1v1h-1z M5,17h1v1h-1z M8,17h1v1h-1z M9,17h1v1h-1z M10,17h1v1h-1z M11,17h1v1h-1z M13,17h1v1h-1z M15,17h1v1h-1z M20,17h1v1h-1z M21,17h1v1h-1z M22,17h1v1h-1z M23,17h1v1h-1z M24,17h1v1h-1z M25,17h1v1h-1z M26,17h1v1h-1z M28,17h1v1h-1z M29,17h1v1h-1z M31,17h1v1h-1z M32,17h1v1h-1z M2,18h1v1h-1z M3,18h1v1h-1z M5,18h1v1h-1z M6,18h1v1h-1z M9,18h1v1h-1z M11,18h1v1h-1z M12,18h1v1h-1z M13,18h1v1h-1z M15,18h1v1h-1z M18,18h1v1h-1z M22,18h1v1h-1z M27,18h1v1h-1z M28,18h1v1h-1z M30,18h1v1h-1z M0,19h1v1h-1z M5,19h1v1h-1z M8,19h1v1h-1z M10,19h1v1h-1z M14,19h1v1h-1z M17,19h1v1h-1z M18,19h1v1h-1z M19,19h1v1h-1z M22,19h1v1h-1z M25,19h1v1h-1z M28,19h1v1h-1z M31,19h1v1h-1z M0,20h1v1h-1z M2,20h1v1h-1z M5,20h1v1h-1z M6,20h1v1h-1z M7,20h1v1h-1z M9,20h1v1h-1z M10,20h1v1h-1z M11,20h1v1h-1z M13,20h1v1h-1z M15,20h1v1h-1z M16,20h1v1h-1z M19,20h1v1h-1z M21,20h1v1h-1z M23,20h1v1h-1z M27,20h1v1h-1z M29,20h1v1h-1z M30,20h1v1h-1z M32,20h1v1h-1z M0,21h1v1h-1z M3,21h1v1h-1z M4,21h1v1h-1z M7,21h1v1h-1z M9,21h1v1h-1z M10,21h1v1h-1z M14,21h1v1h-1z M15,21h1v1h-1z M16,21h1v1h-1z M20,21h1v1h-1z M23,21h1v1h-1z M26,21h1v1h-1z M30,21h1v1h-1z M32,21h1v1h-1z M2,22h1v1h-1z M6,22h1v1h-1z M7,22h1v1h-1z M8,22h1v1h-1z M11,22h1v1h-1z M12,22h1v1h-1z M13,22h1v1h-1z M15,22h1v1h-1z M18,22h1v1h-1z M19,22h1v1h-1z M20,22h1v1h-1z M21,22h1v1h-1z M23,22h1v1h-1z M24,22h1v1h-1z M25,22h1v1h-1z M27,22h1v1h-1z M30,22h1v1h-1z M31,22h1v1h-1z M32,22h1v1h-1z M1,23h1v1h-1z M3,23h1v1h-1z M7,23h1v1h-1z M9,23h1v1h-1z M10,23h1v1h-1z M11,23h1v1h-1z M13,23h1v1h-1z M14,23h1v1h-1z M15,23h1v1h-1z M18,23h1v1h-1z M20,23h1v1h-1z M24,23h1v1h-1z M25,23h1v1h-1z M26,23h1v1h-1z M27,23h1v1h-1z M29,23h1v1h-1z M0,24h1v1h-1z M2,24h1v1h-1z M4,24h1v1h-1z M5,24h1v1h-1z M6,24h1v1h-1z M8,24h1v1h-1z M9,24h1v1h-1z M10,24h1v1h-1z M11,24h1v1h-1z M12,24h1v1h-1z M13,24h1v1h-1z M14,24h1v1h-1z M17,24h1v1h-1z M19,24h1v1h-1z M20,24h1v1h-1z M22,24h1v1h-1z M24,24h1v1h-1z M25,24h1v1h-1z M26,24h1v1h-1z M27,24h1v1h-1z M28,24h1v1h-1z M8,25h1v1h-1z M9,25h1v1h-1z M12,25h1v1h-1z M15,25h1v1h-1z M16,25h1v1h-1z M19,25h1v1h-1z M23,25h1v1h-1z M24,25h1v1h-1z M28,25h1v1h-1z M29,25h1v1h-1z M0,26h1v1h-1z M1,26h1v1h-1z M2,26h1v1h-1z M3,26h1v1h-1z M4,26h1v1h-1z M5,26h1v1h-1z M6,26h1v1h-1z M8,26h1v1h-1z M9,26h1v1h-1z M11,26h1v1h-1z M16,26h1v1h-1z M17,26h1v1h-1z M18,26h1v1h-1z M19,26h1v1h-1z M21,26h1v1h-1z M22,26h1v1h-1z M23,26h1v1h-1z M24,26h1v1h-1z M26,26h1v1h-1z M28,26h1v1h-1z M0,27h1v1h-1z M6,27h1v1h-1z M8,27h1v1h-1z M9,27h1v1h-1z M10,27h1v1h-1z M11,27h1v1h-1z M13,27h1v1h-1z M15,27h1v1h-1z M16,27h1v1h-1z M17,27h1v1h-1z M18,27h1v1h-1z M19,27h1v1h-1z M20,27h1v1h-1z M21,27h1v1h-1z M22,27h1v1h-1z M23,27h1v1h-1z M24,27h1v1h-1z M28,27h1v1h-1z M29,27h1v1h-1z M30,27h1v1h-1z M31,27h1v1h-1z M0,28h1v1h-1z M2,28h1v1h-1z M3,28h1v1h-1z M4,28h1v1h-1z M6,28h1v1h-1z M9,28h1v1h-1z M12,28h1v1h-1z M14,28h1v1h-1z M16,28h1v1h-1z M17,28h1v1h-1z M18,28h1v1h-1z M19,28h1v1h-1z M20,28h1v1h-1z M21,28h1v1h-1z M22,28h1v1h-1z M23,28h1v1h-1z M24,28h1v1h-1z M25,28h1v1h-1z M26,28h1v1h-1z M27,28h1v1h-1z M28,28h1v1h-1z M30,28h1v1h-1z M0,29h1v1h-1z M2,29h1v1h-1z M3,29h1v1h-1z M4,29h1v1h-1z M6,29h1v1h-1z M8,29h1v1h-1z M9,29h1v1h-1z M10,29h1v1h-1z M13,29h1v1h-1z M16,29h1v1h-1z M17,29h1v1h-1z M19,29h1v1h-1z M22,29h1v1h-1z M23,29h1v1h-1z M27,29h1v1h-1z M30,29h1v1h-1z M32,29h1v1h-1z M0,30h1v1h-1z M2,30h1v1h-1z M3,30h1v1h-1z M4,30h1v1h-1z M6,30h1v1h-1z M8,30h1v1h-1z M10,30h1v1h-1z M11,30h1v1h-1z M12,30h1v1h-1z M14,30h1v1h-1z M15,30h1v1h-1z M16,30h1v1h-1z M18,30h1v1h-1z M20,30h1v1h-1z M21,30h1v1h-1z M22,30h1v1h-1z M26,30h1v1h-1z M27,30h1v1h-1z M0,31h1v1h-1z M6,31h1v1h-1z M9,31h1v1h-1z M10,31h1v1h-1z M17,31h1v1h-1z M18,31h1v1h-1z M19,31h1v1h-1z M20,31h1v1h-1z M22,31h1v1h-1z M24,31h1v1h-1z M26,31h1v1h-1z M27,31h1v1h-1z M28,31h1v1h-1z M29,31h1v1h-1z M32,31h1v1h-1z M0,32h1v1h-1z M1,32h1v1h-1z M2,32h1v1h-1z M3,32h1v1h-1z M4,32h1v1h-1z M5,32h1v1h-1z M6,32h1v1h-1z M8,32h1v1h-1z M9,32h1v1h-1z M10,32h1v1h-1z M11,32h1v1h-1z M12,32h1v1h-1z M17,32h1v1h-1z M18,32h1v1h-1z M21,32h1v1h-1z M23,32h1v1h-1z M26,32h1v1h-1z M28,32h1v1h-1z M30,32h1v1h-1z" fill="#000000"/>
</svg>
